<svg t="1588084034946" class="icon" viewBox="0 0 1024 1024" version="1.1" xmlns="http://www.w3.org/2000/svg" p-id="11760" width="30" height="30"><path d="M996.955405 145.54762c-1.815156-0.265292-18.696111-2.59707-48.78582-2.59707-56.241924 0-155.614757 8.377645-283.178365 52.30443 131.040331-74.211972 265.208316-80.983902 267.037436-80.983902a20.609007 20.609007 0 0 0-1.661566-41.190088c-8.531235 0.349069-167.134019 7.986688-313.882435 102.877481 110.975871-103.589581 273.278781-134.977824 275.415081-135.438594a20.650895 20.650895 0 0 0 16.517924-24.001954C905.862478 2.680846 881.204276 0.600398 884.443632 0c-11.826442 2.178188-272.008172 52.262542-372.567838 244.278167C411.106687 52.70935 151.399691 2.666884 139.615137 0.474733a20.609007 20.609007 0 0 0-7.442141 40.491951c2.164225 0.40492 164.760352 31.667498 275.722261 135.620111C261.035139 81.556374 102.181027 73.876867 93.649791 73.541761a20.609007 20.609007 0 1 0-1.647603 41.190088c1.843082 0.083776 136.192583 6.604377 267.442355 81.137492-127.745124-44.010562-227.243622-52.444058-283.541396-52.444058-30.089708 0-46.998589 2.359703-48.869596 2.624996A30.941436 30.941436 0 0 0 0.685857 178.960461l51.341001 684.900407a30.969361 30.969361 0 0 0 29.74064 28.609658c254.359266 9.11767 409.946097 124.142737 411.481999 125.273719a30.91351 30.91351 0 0 0 32.393561 3.029915 30.508591 30.508591 0 0 0 7.274588-5.04055c19.226695-13.683487 169.745051-115.192619 409.3457-123.75178a30.955398 30.955398 0 0 0 29.726677-28.595695l51.313076-684.91437a30.955398 30.955398 0 0 0-26.361657-32.924145zM480.920396 937.05356c-65.443371-36.680123-193.090755-93.55037-369.300556-105.027743L64.677102 205.433819c3.448797-0.083776 7.162887-0.167553 11.170194-0.167553 71.209983 0 216.939118 14.437475 405.087063 108.909386z m431.44872-105.502476c-176.209801 11.379635-303.857186 68.347621-369.314519 105.01378V313.756769c188.147945-94.56965 333.905006-108.909386 405.114988-108.909385q5.990020 0 11.170194 0.125665z m0 0" p-id="11761"></path></svg>