<svg t="1588084247282" class="icon" viewBox="0 0 1024 1024" version="1.1" xmlns="http://www.w3.org/2000/svg" p-id="23226" width="30" height="30"><path d="M318 900H138.26a30 30 0 0 1-30-30V626a30 30 0 0 1 30-30H318a30 30 0 0 1 30 30v244a30 30 0 0 1-30 30z m-149.74-60H288v-184H168.26zM600.14 900H420.4a30 30 0 0 1-30-30V520.22a30 30 0 0 1 30-30h179.74a30 30 0 0 1 30 30V870a30 30 0 0 1-30 30z m-149.74-60h119.74V550.22H450.4zM882.26 900h-179.72a30 30 0 0 1-30-30V399.48a30 30 0 0 1 30-30h179.72a30 30 0 0 1 30 30V870a30 30 0 0 1-30 30z m-149.72-60h119.72V429.48h-119.72zM706.14 307.84a30 30 0 0 1-26.7-43.64L713.16 198l-66.18-33.7a30 30 0 1 1 27.24-53.46l92.92 47.34a30 30 0 0 1 13.1 40.34l-47.34 92.92a30 30 0 0 1-26.76 16.4z" p-id="23227"></path><path d="M197.72 395.5a30 30 0 0 1-9.26-58.54l546.28-177.5a30 30 0 0 1 18.54 57.06L207 394a30 30 0 0 1-9.28 1.5z" p-id="23228"></path></svg>