<svg t="1588083980659" class="icon" viewBox="0 0 1024 1024" version="1.1" xmlns="http://www.w3.org/2000/svg" p-id="11027" width="30" height="30"><path d="M512 929.6c-214.4 0-387.2-174.4-387.2-387.2 0-30.4 3.2-59.2 9.6-88C67.2 424 24 358.4 24 283.2c0-104 84.8-188.8 188.8-188.8 65.6 0 124.8 33.6 158.4 86.4 44.8-17.6 92.8-27.2 142.4-27.2 49.6 0 97.6 9.6 142.4 27.2 33.6-54.4 92.8-86.4 158.4-86.4 104 0 188.8 84.8 188.8 188.8 0 75.2-44.8 140.8-110.4 171.2 6.4 28.8 9.6 59.2 9.6 88-3.2 212.8-176 387.2-390.4 387.2zM211.2 158.4c-68.8 0-124.8 56-124.8 124.8 0 57.6 38.4 105.6 94.4 120 8 1.6 16 8 20.8 16 4.8 8 4.8 17.6 3.2 25.6-9.6 32-16 65.6-16 99.2 0 179.2 145.6 323.2 323.2 323.2S835.2 720 835.2 542.4c0-33.6-4.8-67.2-16-99.2-3.2-8-1.6-17.6 3.2-25.6s11.2-12.8 20.8-16c54.4-14.4 94.4-64 94.4-120 0-68.8-56-124.8-124.8-124.8-49.6 0-96 30.4-115.2 76.8-3.2 8-9.6 14.4-17.6 17.6-8 3.2-17.6 3.2-25.6-1.6C609.6 227.2 561.6 216 512 216s-97.6 11.2-142.4 33.6c-8 3.2-17.6 4.8-25.6 1.6-8-3.2-14.4-9.6-17.6-17.6-19.2-46.4-64-75.2-115.2-75.2z" fill="" p-id="11028"></path></svg>