<svg t="1588084732043" class="icon" viewBox="0 0 1024 1024" version="1.1" xmlns="http://www.w3.org/2000/svg" p-id="35501" width="30" height="30"><path d="M906.03889 483.749586l-54.074569 0c-21.25714-180.562379-165.81756-321.212746-338.750167-321.212746-172.693154 0-317.506331 140.79977-338.768587 321.212746l-54.085826 0c-63.306838 0-114.838492 54.599526-114.838492 121.778554l0 133.307122c0 67.11763 51.531654 121.778554 114.838492 121.778554l83.138512 0c8.42795 0 16.48444-3.346211 22.434965-9.29469 5.948479-5.949502 9.295714-14.068414 9.295714-22.434965l-0.031722-90.048899 0.007163-53.574173c0.00921-0.320295 0.024559-0.64059 0.024559-0.962931 0-1.796926 0-155.183362 0.030699-159.647023 2.479471-164.665317 127.171378-298.652937 277.954523-298.652937 151.403269 0 276.095175 134.545322 277.955546 299.956629 0.027629 4.155646 0.030699 129.704061 0.030699 154.2235l0 148.705833c0 17.538445 14.19121 31.729655 31.730679 31.729655l83.107813 0c63.33856 0 114.869191-54.660924 114.869191-121.778554L1020.90808 605.529163C1020.90808 538.349111 969.37745 483.749586 906.03889 483.749586zM120.360763 797.153482c-28.323069 0-51.377134-26.15366-51.377134-58.317197L68.983629 605.529163c0-32.163537 23.054065-58.316174 51.377134-58.316174l51.40681 0-0.029676 58.316174 0.029676 191.625342L120.360763 797.154505zM957.447746 738.836285c0 32.16456-23.054065 58.317197-51.407833 58.317197l-51.376111 0L854.663802 547.211966l51.376111 0c28.353768 0 51.407833 26.15366 51.407833 58.316174L957.447746 738.836285z" p-id="35502"></path></svg>