<svg t="1588084336002" class="icon" viewBox="0 0 1187 1024" version="1.1" xmlns="http://www.w3.org/2000/svg" p-id="26380" width="30" height="30"><path d="M309.516473 762.060325C148.551276 762.060325 20.84826 727.016241 2.138283 643.266821c-7.721578-34.7471 1.781903-89.095128 90.87703-157.698376l33.559165 44.547564c-50.190255 38.013921-75.730858 74.839907-69.791183 100.974478C71.335499 696.723898 297.043155 742.459397 628.774014 668.510441s517.048724-210.264501 502.49652-275.600928c-5.939675-26.134571-44.547564-48.705336-106.023202-62.069606l11.582366-54.645011c109.290023 23.461717 141.364269 69.791183 148.49188 104.538283 29.698376 137.206497-258.078886 278.867749-544.965197 342.422273a1586.784223 1586.784223 0 0 1-330.839908 38.904873z" fill="#434343" p-id="26381"></path><path d="M594.026914 1024a512 512 0 1 1 512-512A512.296984 512.296984 0 0 1 594.026914 1024z m0-968.167053a456.167053 456.167053 0 1 0 456.167054 456.167053A456.761021 456.761021 0 0 0 594.026914 55.832947z" fill="#434343" p-id="26382"></path></svg>