<svg t="1588084477643" class="icon" viewBox="0 0 1024 1024" version="1.1" xmlns="http://www.w3.org/2000/svg" p-id="31926" width="30" height="30"><path d="M512 62.976A449.536 449.536 0 0 1 961.024 512 449.462857 449.462857 0 0 1 512 961.024 449.462857 449.462857 0 0 1 62.976 512 449.536 449.536 0 0 1 512 62.976zM512 1024c282.331429 0 512-229.668571 512-512s-229.668571-512-512-512-512 229.668571-512 512 229.668571 512 512 512z m12.946286-768.438857c53.248 0 96.548571 14.116571 128.146285 44.105143 30.72 28.233143 46.592 67.364571 46.592 117.321143 0 37.449143-10.825143 69.851429-30.793142 97.28-8.338286 10.020571-31.670857 31.670857-68.242286 64.073142-17.481143 14.994286-29.988571 29.988571-38.253714 44.982858-10.825143 18.285714-15.798857 39.058286-15.798858 61.513142v19.163429H479.085714v-19.163429c0-27.428571 4.973714-51.565714 15.798857-72.411428 10.825143-24.868571 39.131429-56.539429 84.114286-96.475429 13.238857-13.312 22.381714-23.259429 28.233143-29.988571 15.798857-20.772571 24.137143-42.422857 24.137143-65.682286 0-33.28-9.142857-59.099429-27.501714-77.385143-19.968-19.968-47.396571-29.110857-82.358858-29.110857-40.740571 0-71.533714 13.312-92.306285 40.813714-17.554286 23.259429-26.624 54.857143-26.624 95.670858h-66.56c0-58.294857 16.603429-104.886857 49.005714-139.776 34.157714-36.571429 80.749714-54.930286 139.849143-54.930286z m-10.605715 480.475428a47.981714 47.981714 0 1 1 0 95.963429 47.981714 47.981714 0 0 1 0-96.036571z" p-id="31927"></path></svg>