<svg t="1588084122305" class="icon" viewBox="0 0 1024 1024" version="1.1" xmlns="http://www.w3.org/2000/svg" p-id="15811" width="30" height="30"><path d="M767.4 77.3l-1.9-1.1c-15-8.5-34-3.4-42.7 11.4L705.6 117c-8.9 15.1-3.6 34.6 11.6 43.2l1.9 1.1c15 8.5 34 3.4 42.7-11.4l17.2-29.4c8.8-15.1 3.6-34.6-11.6-43.2z m-481.2 45.4l-17.9-30.5c-8.5-14.6-27.2-19.6-41.8-11.2l-3 1.7c-14.9 8.5-20 27.6-11.4 42.4l17.9 30.5c8.5 14.6 27.2 19.6 41.8 11.2l3-1.7c15-8.5 20.1-27.5 11.4-42.4z m335 833.9H404.4c-15.3 0-29.5 10.3-32.2 25.4-3.6 19.8 11.5 37 30.7 37h217.5c13.6 0 26.5-8.2 30.6-21.1 6.6-21.5-9.3-41.3-29.8-41.3zM513.7 5h-3.3c-17.1 0-31 13.9-31 31v34.6c0 17.1 13.9 31 31 31h3.3c17.1 0 31-13.9 31-31V36c0-17.1-13.9-31-31-31zM55.9 331.3l30.7 17.5c14.8 8.4 33.7 3.4 42.3-11.3l1.2-2c8.8-15 3.6-34.2-11.5-42.8l-30.7-17.5c-14.8-8.4-33.7-3.4-42.3 11.3l-1.2 2c-8.8 15-3.6 34.2 11.5 42.8z m432.8-169.6c-179.2 11.4-324.5 157.6-334.8 336.9-8.3 144.8 69.3 272.3 186.6 336.3V863c0 25.8 21 46.8 46.8 46.8h249.6c25.8 0 46.8-21 46.8-46.8v-28.1C795.2 774 870.9 655.7 870.9 519.8c-0.1-205.9-173.5-371.3-382.2-358.1zM643.8 785h-22.6v62.4H402.9V785h-22.6c-108.1-53.8-178.8-171.3-162.2-303.5 16.8-134.1 125.7-241.3 260.1-256.2C657 205.4 808.5 344.9 808.5 519.8c0 116.3-67.2 216.7-164.7 265.2zM936 275.3l-30.3 17.2c-15.2 8.7-20.4 28.1-11.6 43.2l0.9 1.5c8.7 14.8 27.7 19.9 42.7 11.4l30.3-17.2c15.2-8.7 20.4-28.1 11.6-43.2l-0.9-1.5c-8.7-14.8-27.7-19.9-42.7-11.4zM691.4 431.6c-0.3 2.7 0.2 5.1 0.8 7.5h-0.1c0 0.1 0.1 0.1 0.1 0.2 0.7 3.1 2 5.9 3.9 8.3 3.2 6.5 10.4 18.7 11 18.2 4 4.4 9.8 7.1 16.2 7.1 12.6 0 22.8-10.4 22.8-23.2-0.1-6.5-3-11.6-4.8-17.6-3.1-7.9-14.1-20.6-15.2-19.7-3.1-2.5-6.7-4.4-10.8-4.5-11.6-0.4-22.7 10.4-23.9 23.7z m10.5-54.9c0.7-7.8-2.1-14.6-6.8-19.1l0.1-0.1c-36.3-43.2-87.2-74.5-154.3-87.3 0 0.2-0.1 0.3-0.2 0.5-1.7-0.3-3.3-0.9-5-0.8-12.9 0.1-23.6 10.7-23.7 23.6 0 9.1 5.9 16.4 14.3 19.8-0.1 0.2-0.2 0.4-0.2 0.6 58.5 10.3 100.7 37.5 131.8 74.2 0.5-0.4 11 12.4 19.7 12.5 12.3 0 23.1-10.6 24.3-23.9z" p-id="15812"></path></svg>