<svg t="1588084426089" class="icon" viewBox="0 0 1024 1024" version="1.1" xmlns="http://www.w3.org/2000/svg" p-id="28603" width="30" height="30"><path d="M934.32 65.904c10.432 0 17.776 1.936 21.6 3.408 4.592 12.224 10.752 56.032-34.528 101.344L690.4 401.632l1.664 28.656c3.504 59.968 10 167.44 15.6 259.568 4.944 82 9.632 159.44 9.936 166.032 0.16 4.528 0.224 5.6-4 10.688-9.44 11.472-27.056 30.912-41.904 47.024-23.024-62.032-71.408-193.056-98.128-266.4l-34.336-94.368-71.024 71.024L337.6 749.44l-18.192 18.16-0.56 25.68c-0.432 20.496-0.336 57.28-0.288 89.712 0.064 22.592 0.128 43.12-0.032 54.432-0.288 0.528 4.368 1.152 3.936 1.904-2.784-4.464-5.776-9.28-8.944-14.288-26.336-42-62.784-100.096-73.904-118.224l-8.128-13.28-13.344-8.064c-48.528-29.312-102.288-63.152-135.088-84.288 1.136-0.656 2.064 2.816 2.816 2.416H88c10.32 0 27.376 0.224 46.496 0.496 25.008 0.336 53.376 0.752 75.088 0.752 8.32 0 15.712-0.064 21.664-0.192l25.68-0.592 18.16-18.16 125.744-129.712 70.784-70.752-93.936-34.56c-70.592-25.968-205.808-76.464-269.056-100.224 16.224-14.944 35.776-32.688 47.184-42.128 3.184-2.624 5.664-3.968 7.376-3.968l2.256 0.064c7.056 0.336 94.688 6.064 179.408 11.6 89.936 5.872 191.44 12.496 249.152 16.16l28.848 1.808 231.024-231.04c32.448-32.4 64.32-37.248 80.448-37.248m0-64c-37.808 0-84.224 14.528-125.68 56L598.032 268.496c-118.624-7.504-422.432-27.6-429.968-27.808a101.421 101.421 0 0 0-4.88-0.128c-10.256 0-27.968 1.968-48.128 18.624-23.664 19.568-73.008 65.968-73.008 65.968-11.904 11.936-17.936 26.72-16.496 40.624 0.88 8.4 5.44 23.712 26.064 31.776 12.528 4.912 211.904 79.504 303.968 113.376L229.84 640.64c-5.568 0.128-12.464 0.192-20.256 0.192-38.336 0-97.776-1.248-121.6-1.248-3.152 0-5.68 0-7.472 0.064-7.248 0.224-22.256-3.344-61.84 29.744l-2.816 2.624C3.984 683.888 1.2 695.728 0.944 703.552c-0.256 8.064 1.904 19.68 13.568 29.024 7.008 5.664 96.848 63.184 170.528 107.68 17.664 28.816 98.944 158 103.184 165.008 6.192 10.464 16.32 16.432 28.432 16.816h1.008c11.776 0 23.872-5.84 35.712-17.344 33.504-39.184 28.88-55.408 29.024-62.224 0.528-21.376-0.368-111.936 0.4-147.84l130.592-125.6c33.376 91.68 106.336 289.008 111.216 301.568 8.128 20.624 23.44 25.152 31.84 26a36.24 36.24 0 0 0 4.16 0.224c12.624 0 25.712-5.936 36.432-16.656 0 0 46.256-49.088 65.904-72.976 19.68-23.872 18.912-44.256 18.528-53.872-0.16-6.656-18.688-308.816-25.568-426.816L966.56 215.888c74.656-74.688 62.784-164.688 35.056-192.368-12.24-12.304-37.024-21.616-67.296-21.616z" p-id="28604"></path></svg>