<svg t="1588084363725" class="icon" viewBox="0 0 1024 1024" version="1.1" xmlns="http://www.w3.org/2000/svg" p-id="27115" width="30" height="30"><path d="M532.38 128.96L993.7 370.307c14.99 7.855 24.063 23.683 23.248 40.578a43.466 43.466 0 0 1-27.022 38.173L822.749 517.13l4.78 237.053c-3.356 15.778-8 26.405-13.932 31.883-43.422 71.637-179 103.934-301.392 103.934-122.402 0-257.99-32.302-301.401-103.945-5.928-5.477-10.568-16.102-13.921-31.872l4.78-237.053-107.678-43.842v264.6c0 24-19.47 43.458-43.49 43.458C26.476 781.347 7 761.888 7 737.89V411.93c0.016-2.294 0.218-4.59 0.59-6.854a43.464 43.464 0 0 1 23.13-34.77L492.037 128.96a43.505 43.505 0 0 1 40.342 0zM519 566.001l395-158.175L519 196 124 402.826 519 566z m-17.157 255.263c81.45 0 228.188-37.815 247.998-64.552V545.264l-221.607 85.819a43.517 43.517 0 0 1-32.78 0l-221.608-85.819 0.264 212.154c35.176 33.92 146.284 63.846 227.733 63.846z" p-id="27116"></path></svg>